{
  "source": "C:\\Users\\Peter\\Desktop\\stuff\\MIUN\\quantitative_research\\video_compression\\videos\\BVI-HD\\BVI-HD_CDVL_videos\\ORIG\\Hamster_1920x1080_60fps.mp4",
  "output": "C:\\Users\\Peter\\Desktop\\stuff\\MIUN\\quantitative_research\\video_compression\\compressed_videos\\BVI-HD\\av1\\1\\Hamster_1920x1080_60fps_av1.mkv",
  "codec": "av1",
  "ok": "Input #0, mov,mp4,m4a,3gp,3g2,mj2, from 'C:\\Users\\Peter\\Desktop\\stuff\\MIUN\\quantitative_research\\video_compression\\videos\\BVI-HD\\BVI-HD_CDVL_videos\\ORIG\\Hamster_1920x1080_60fps.mp4':\n  Metadata:\n    major_brand     : isom\n    minor_version   : 512\n    compatible_brands: isomiso2avc1mp41\n    encoder         : Lavf54.28.101\n  Duration: 00:00:05.00, start: 0.000000, bitrate: 208485 kb/s\n  Stream #0:0[0x1](und): Video: h264 (High 4:4:4 Predictive) (avc1 / 0x31637661), yuv420p(progressive), 1920x1080, 208481 kb/s, 60 fps, 60 tbr, 60 tbn (default)\n    Metadata:\n      handler_name    : VideoHandler\n      vendor_id       : [0][0][0][0]\n[out#0/matroska @ 0000017b10269780] Codec AVOption b:a (set bitrate (in bits/s)) has not been used for any stream. The most likely reason is either wrong type (e.g. a video option with no video streams) or that it is a private option of some decoder which was not actually used for any stream.\nStream mapping:\n  Stream #0:0 -> #0:0 (h264 (native) -> av1 (libsvtav1))\nPress [q] to stop, [?] for help\nSvt[info]: -------------------------------------------\nSvt[info]: SVT [version]:\tSVT-AV1 Encoder Lib v3.1.0-19-g6ecfe8ec\nSvt[info]: SVT [build]  :\tGCC 15.2.0\t 64 bit\nSvt[info]: LIB Build date: Aug 17 2025 11:37:13\nSvt[info]: -------------------------------------------\nSvt[info]: Level of Parallelism: 5\nSvt[info]: Number of PPCS 93\nSvt[info]: [asm level on system : up to avx2]\nSvt[info]: [asm level selected : up to avx2]\nSvt[info]: -------------------------------------------\nSvt[info]: SVT [config]: main profile\ttier (auto)\tlevel (auto)\nSvt[info]: SVT [config]: width / height / fps numerator / fps denominator \t\t: 1920 / 1080 / 60 / 1\nSvt[info]: SVT [config]: bit-depth / color format \t\t\t\t\t: 8 / YUV420\nSvt[info]: SVT [config]: preset / tune / pred struct \t\t\t\t\t: 4 / PSNR / random access\nSvt[info]: SVT [config]: gop size / mini-gop size / key-frame type \t\t\t: 321 / 16 / key frame\nSvt[info]: SVT [config]: BRC mode / target bitrate (kbps)\t\t\t\t: VBR / 1000 \nSvt[info]: SVT [config]: AQ mode / Variance Boost \t\t\t\t\t: 2 / 0\nSvt[info]: SVT [config]: sharpness / luminance-based QP bias \t\t\t\t: 0 / 0\nSvt[info]: SVT [config]: QP scale compress strength \t\t\t\t\t: 0\nSvt[info]: -------------------------------------------\nOutput #0, matroska, to 'C:\\Users\\Peter\\Desktop\\stuff\\MIUN\\quantitative_research\\video_compression\\compressed_videos\\BVI-HD\\av1\\1\\Hamster_1920x1080_60fps_av1.mkv':\n  Metadata:\n    major_brand     : isom\n    minor_version   : 512\n    compatible_brands: isomiso2avc1mp41\n    encoder         : Lavf62.3.100\n  Stream #0:0(und): Video: av1 (AV01 / 0x31305641), yuv420p(tv, progressive), 1920x1080, q=2-31, 1000 kb/s, 60 fps, 1k tbn (default)\n    Metadata:\n      encoder         : Lavc62.11.100 libsvtav1\n      handler_name    : VideoHandler\n      vendor_id       : [0][0][0][0]\n    Side data:\n      cpb: bitrate max/min/avg: 0/0/1000000 buffer size: 1000000 vbv_delay: N/A\nframe=    0 fps=0.0 q=0.0 size=       0KiB time=N/A bitrate=N/A speed=N/A elapsed=0:00:02.54    \nframe=    0 fps=0.0 q=0.0 size=       0KiB time=N/A bitrate=N/A speed=N/A elapsed=0:00:03.28    \nframe=    0 fps=0.0 q=0.0 size=       0KiB time=N/A bitrate=N/A speed=N/A elapsed=0:00:03.89    \nframe=    0 fps=0.0 q=0.0 size=       0KiB time=N/A bitrate=N/A speed=N/A elapsed=0:00:04.42    \nframe=    0 fps=0.0 q=0.0 size=       0KiB time=N/A bitrate=N/A speed=N/A elapsed=0:00:04.93    \nframe=    0 fps=0.0 q=0.0 size=       0KiB time=N/A bitrate=N/A speed=N/A elapsed=0:00:05.61    \nframe=    0 fps=0.0 q=0.0 size=       0KiB time=N/A bitrate=N/A speed=N/A elapsed=0:00:06.20    \nframe=    0 fps=0.0 q=0.0 size=       0KiB time=N/A bitrate=N/A speed=N/A elapsed=0:00:06.76    \nframe=    0 fps=0.0 q=0.0 size=       0KiB time=N/A bitrate=N/A speed=N/A elapsed=0:00:07.59    \nframe=    0 fps=0.0 q=0.0 size=       0KiB time=N/A bitrate=N/A speed=N/A elapsed=0:00:08.35    \nframe=    0 fps=0.0 q=0.0 size=       0KiB time=N/A bitrate=N/A speed=N/A elapsed=0:00:09.36    \nframe=    0 fps=0.0 q=0.0 size=       0KiB time=N/A bitrate=N/A speed=N/A elapsed=0:00:10.20    \nframe=    0 fps=0.0 q=0.0 size=       0KiB time=N/A bitrate=N/A speed=N/A elapsed=0:00:10.91    \nframe=    0 fps=0.0 q=0.0 size=       0KiB time=N/A bitrate=N/A speed=N/A elapsed=0:00:11.60    \nframe=    0 fps=0.0 q=0.0 size=       0KiB time=N/A bitrate=N/A speed=N/A elapsed=0:00:12.26    \nframe=    0 fps=0.0 q=0.0 size=       0KiB time=N/A bitrate=N/A speed=N/A elapsed=0:00:13.05    \nframe=    0 fps=0.0 q=0.0 size=       0KiB time=N/A bitrate=N/A speed=N/A elapsed=0:00:13.57    \nframe=    0 fps=0.0 q=0.0 size=       0KiB time=N/A bitrate=N/A speed=N/A elapsed=0:00:14.10    \nframe=    0 fps=0.0 q=0.0 size=       0KiB time=N/A bitrate=N/A speed=N/A elapsed=0:00:14.61    \nframe=    1 fps=0.1 q=20.0 size=       1KiB time=00:00:00.00 bitrate=N/A speed=   0x elapsed=0:00:15.12    \nframe=    1 fps=0.1 q=20.0 size=       1KiB time=00:00:00.00 bitrate=N/A speed=   0x elapsed=0:00:15.64    \nframe=    1 fps=0.1 q=20.0 size=       1KiB time=00:00:00.00 bitrate=N/A speed=   0x elapsed=0:00:16.16    \nframe=    4 fps=0.2 q=51.0 size=       1KiB time=00:00:00.05 bitrate= 113.9kbits/s speed=0.003x elapsed=0:00:16.67    \nframe=    7 fps=0.4 q=48.0 size=       1KiB time=00:00:00.10 bitrate=  57.0kbits/s speed=0.00582x elapsed=0:00:17.19    \nframe=    8 fps=0.5 q=51.0 size=       1KiB time=00:00:00.11 bitrate=  48.8kbits/s speed=0.00659x elapsed=0:00:17.71    \nframe=    9 fps=0.5 q=44.0 size=       1KiB time=00:00:00.13 bitrate=  42.7kbits/s speed=0.00732x elapsed=0:00:18.21    \nframe=   11 fps=0.6 q=47.0 size=       1KiB time=00:00:00.16 bitrate=  34.2kbits/s speed=0.0089x elapsed=0:00:18.72    \nframe=   15 fps=0.8 q=48.0 size=       1KiB time=00:00:00.23 bitrate=  24.4kbits/s speed=0.0121x elapsed=0:00:19.24    \nframe=   17 fps=0.9 q=37.0 size=       1KiB time=00:00:00.26 bitrate=  21.4kbits/s speed=0.0135x elapsed=0:00:19.76    \nframe=   20 fps=1.0 q=49.0 size=       1KiB time=00:00:00.31 bitrate=  18.0kbits/s speed=0.0156x elapsed=0:00:20.28    \nframe=   22 fps=1.1 q=49.0 size=       1KiB time=00:00:00.35 bitrate=  16.3kbits/s speed=0.0168x elapsed=0:00:20.79    \nframe=   23 fps=1.1 q=49.0 size=       1KiB time=00:00:00.36 bitrate=  15.5kbits/s speed=0.0172x elapsed=0:00:21.31    \nframe=   25 fps=1.1 q=44.0 size=       1KiB time=00:00:00.40 bitrate=  14.2kbits/s speed=0.0183x elapsed=0:00:21.82    \nframe=   27 fps=1.2 q=48.0 size=       1KiB time=00:00:00.43 bitrate=  13.1kbits/s speed=0.0194x elapsed=0:00:22.34    \nframe=   28 fps=1.2 q=49.0 size=       1KiB time=00:00:00.45 bitrate=  12.7kbits/s speed=0.0197x elapsed=0:00:22.86    \nframe=   32 fps=1.4 q=50.0 size=       1KiB time=00:00:00.51 bitrate=  11.0kbits/s speed=0.0221x elapsed=0:00:23.36    \nframe=   35 fps=1.5 q=49.0 size=       1KiB time=00:00:00.56 bitrate=  10.1kbits/s speed=0.0237x elapsed=0:00:23.88    \nframe=   35 fps=1.4 q=49.0 size=       1KiB time=00:00:00.56 bitrate=  10.1kbits/s speed=0.0232x elapsed=0:00:24.40    \nframe=   38 fps=1.5 q=51.0 size=       1KiB time=00:00:00.61 bitrate=   9.2kbits/s speed=0.0247x elapsed=0:00:24.91    \nframe=   39 fps=1.5 q=47.0 size=       1KiB time=00:00:00.63 bitrate=   9.0kbits/s speed=0.0249x elapsed=0:00:25.43    \nframe=   42 fps=1.6 q=49.0 size=       1KiB time=00:00:00.68 bitrate=   8.3kbits/s speed=0.0263x elapsed=0:00:25.94    \nframe=   43 fps=1.6 q=49.0 size=       1KiB time=00:00:00.70 bitrate=   8.1kbits/s speed=0.0265x elapsed=0:00:26.46    \nframe=   47 fps=1.7 q=50.0 size=       1KiB time=00:00:00.76 bitrate=   7.4kbits/s speed=0.0284x elapsed=0:00:26.99    \nframe=   51 fps=1.9 q=51.0 size=       1KiB time=00:00:00.83 bitrate=   6.8kbits/s speed=0.0303x elapsed=0:00:27.50    \nframe=   54 fps=1.9 q=51.0 size=       1KiB time=00:00:00.88 bitrate=   6.4kbits/s speed=0.0315x elapsed=0:00:28.01    \nframe=   57 fps=2.0 q=45.0 size=       1KiB time=00:00:00.93 bitrate=   6.1kbits/s speed=0.0327x elapsed=0:00:28.52    \nframe=   60 fps=2.1 q=50.0 size=       1KiB time=00:00:00.98 bitrate=   5.8kbits/s speed=0.0339x elapsed=0:00:29.04    \nframe=   63 fps=2.1 q=51.0 size=       1KiB time=00:00:01.03 bitrate=   5.5kbits/s speed=0.035x elapsed=0:00:29.55    \nframe=   66 fps=2.2 q=48.0 size=       1KiB time=00:00:01.08 bitrate=   5.3kbits/s speed=0.036x elapsed=0:00:30.07    \nframe=   68 fps=2.2 q=48.0 size=       1KiB time=00:00:01.11 bitrate=   5.1kbits/s speed=0.0365x elapsed=0:00:30.58    \nframe=   70 fps=2.2 q=50.0 size=       1KiB time=00:00:01.15 bitrate=   5.0kbits/s speed=0.0369x elapsed=0:00:31.13    \nframe=   72 fps=2.3 q=51.0 size=       1KiB time=00:00:01.18 bitrate=   4.8kbits/s speed=0.0373x elapsed=0:00:31.73    \nframe=   75 fps=2.3 q=51.0 size=       1KiB time=00:00:01.23 bitrate=   4.6kbits/s speed=0.0382x elapsed=0:00:32.25    \nframe=   78 fps=2.4 q=52.0 size=       1KiB time=00:00:01.28 bitrate=   4.4kbits/s speed=0.0391x elapsed=0:00:32.80    \nframe=   81 fps=2.4 q=33.0 size=       1KiB time=00:00:01.33 bitrate=   4.3kbits/s speed=0.04x elapsed=0:00:33.32    \nframe=   83 fps=2.5 q=50.0 size=       1KiB time=00:00:01.36 bitrate=   4.2kbits/s speed=0.0404x elapsed=0:00:33.83    \nframe=   85 fps=2.5 q=49.0 size=       1KiB time=00:00:01.40 bitrate=   4.1kbits/s speed=0.0407x elapsed=0:00:34.35    \nframe=   86 fps=2.5 q=53.0 size=       1KiB time=00:00:01.41 bitrate=   4.0kbits/s speed=0.0406x elapsed=0:00:34.89    \nframe=   87 fps=2.5 q=50.0 size=       1KiB time=00:00:01.43 bitrate=   4.0kbits/s speed=0.0404x elapsed=0:00:35.47    \nframe=   89 fps=2.5 q=47.0 size=       1KiB time=00:00:01.46 bitrate=   3.9kbits/s speed=0.0407x elapsed=0:00:35.99    \nframe=   91 fps=2.5 q=50.0 size=       1KiB time=00:00:01.50 bitrate=   3.8kbits/s speed=0.0411x elapsed=0:00:36.52    \nframe=   93 fps=2.5 q=47.0 size=       1KiB time=00:00:01.53 bitrate=   3.7kbits/s speed=0.0414x elapsed=0:00:37.05    \nframe=   96 fps=2.6 q=53.0 size=       1KiB time=00:00:01.58 bitrate=   3.6kbits/s speed=0.0421x elapsed=0:00:37.59    \nframe=   99 fps=2.6 q=52.0 size=       1KiB time=00:00:01.63 bitrate=   3.5kbits/s speed=0.0428x elapsed=0:00:38.11    \nframe=  100 fps=2.6 q=53.0 size=       1KiB time=00:00:01.65 bitrate=   3.5kbits/s speed=0.0427x elapsed=0:00:38.62    \nframe=  102 fps=2.6 q=53.0 size=       1KiB time=00:00:01.68 bitrate=   3.4kbits/s speed=0.043x elapsed=0:00:39.16    \nframe=  103 fps=2.6 q=52.0 size=       1KiB time=00:00:01.70 bitrate=   3.4kbits/s speed=0.0428x elapsed=0:00:39.71    \nframe=  106 fps=2.6 q=53.0 size=       1KiB time=00:00:01.75 bitrate=   3.3kbits/s speed=0.0435x elapsed=0:00:40.23    \nframe=  107 fps=2.6 q=50.0 size=       1KiB time=00:00:01.76 bitrate=   3.2kbits/s speed=0.0434x elapsed=0:00:40.74    \nframe=  109 fps=2.6 q=46.0 size=       1KiB time=00:00:01.80 bitrate=   3.2kbits/s speed=0.0436x elapsed=0:00:41.28    \nframe=  113 fps=2.7 q=34.0 size=       1KiB time=00:00:01.86 bitrate=   3.1kbits/s speed=0.0447x elapsed=0:00:41.80    \nframe=  115 fps=2.7 q=51.0 size=       1KiB time=00:00:01.90 bitrate=   3.0kbits/s speed=0.0449x elapsed=0:00:42.30    \nframe=  117 fps=2.7 q=49.0 size=       1KiB time=00:00:01.93 bitrate=   2.9kbits/s speed=0.0451x elapsed=0:00:42.83    \nframe=  118 fps=2.7 q=52.0 size=       1KiB time=00:00:01.95 bitrate=   2.9kbits/s speed=0.0449x elapsed=0:00:43.39    \nframe=  119 fps=2.7 q=47.0 size=       1KiB time=00:00:01.96 bitrate=   2.9kbits/s speed=0.0448x elapsed=0:00:43.90    \nframe=  122 fps=2.7 q=52.0 size=       1KiB time=00:00:02.01 bitrate=   2.8kbits/s speed=0.0454x elapsed=0:00:44.41    \nframe=  123 fps=2.7 q=49.0 size=       1KiB time=00:00:02.03 bitrate=   2.8kbits/s speed=0.0452x elapsed=0:00:44.99    \nframe=  126 fps=2.8 q=53.0 size=       1KiB time=00:00:02.08 bitrate=   2.7kbits/s speed=0.0458x elapsed=0:00:45.51    \nframe=  129 fps=2.8 q=37.0 size=       1KiB time=00:00:02.13 bitrate=   2.7kbits/s speed=0.0463x elapsed=0:00:46.03    \nframe=  132 fps=2.8 q=53.0 size=       1KiB time=00:00:02.18 bitrate=   2.6kbits/s speed=0.0469x elapsed=0:00:46.57    \nframe=  134 fps=2.8 q=53.0 size=       1KiB time=00:00:02.21 bitrate=   2.6kbits/s speed=0.0471x elapsed=0:00:47.09    \nframe=  135 fps=2.8 q=48.0 size=       1KiB time=00:00:02.23 bitrate=   2.6kbits/s speed=0.0469x elapsed=0:00:47.62    \nframe=  139 fps=2.9 q=50.0 size=       1KiB time=00:00:02.30 bitrate=   2.5kbits/s speed=0.0478x elapsed=0:00:48.14    \nframe=  141 fps=2.9 q=47.0 size=       1KiB time=00:00:02.31 bitrate=   2.5kbits/s speed=0.0476x elapsed=0:00:48.67    \nframe=  145 fps=2.9 q=35.0 size=       1KiB time=00:00:02.40 bitrate=   2.4kbits/s speed=0.0488x elapsed=0:00:49.21    \nframe=  148 fps=3.0 q=54.0 size=       1KiB time=00:00:02.45 bitrate=   2.3kbits/s speed=0.0493x elapsed=0:00:49.73    \nframe=  150 fps=3.0 q=54.0 size=       1KiB time=00:00:02.48 bitrate=   2.3kbits/s speed=0.0494x elapsed=0:00:50.24    \nframe=  153 fps=3.0 q=46.0 size=       1KiB time=00:00:02.53 bitrate=   2.2kbits/s speed=0.0499x elapsed=0:00:50.76    \nframe=  157 fps=3.1 q=48.0 size=       1KiB time=00:00:02.60 bitrate=   2.2kbits/s speed=0.0507x elapsed=0:00:51.28    \nframe=  160 fps=3.1 q=58.0 size=       1KiB time=00:00:02.65 bitrate=   2.1kbits/s speed=0.0512x elapsed=0:00:51.79    \nframe=  163 fps=3.1 q=56.0 size=       1KiB time=00:00:02.70 bitrate=   2.1kbits/s speed=0.0516x elapsed=0:00:52.30    \nframe=  166 fps=3.1 q=58.0 size=       1KiB time=00:00:02.75 bitrate=   2.1kbits/s speed=0.052x elapsed=0:00:52.83    \nframe=  167 fps=3.1 q=53.0 size=       1KiB time=00:00:02.76 bitrate=   2.1kbits/s speed=0.0519x elapsed=0:00:53.35    \nframe=  171 fps=3.2 q=55.0 size=       1KiB time=00:00:02.83 bitrate=   2.0kbits/s speed=0.0526x elapsed=0:00:53.87    \nframe=  173 fps=3.2 q=52.0 size=       1KiB time=00:00:02.86 bitrate=   2.0kbits/s speed=0.0527x elapsed=0:00:54.38    \nframe=  178 fps=3.2 q=59.0 size=       1KiB time=00:00:02.95 bitrate=   1.9kbits/s speed=0.0537x elapsed=0:00:54.90    \nframe=  180 fps=3.2 q=59.0 size=       1KiB time=00:00:02.98 bitrate=   1.9kbits/s speed=0.0538x elapsed=0:00:55.44    \nframe=  182 fps=3.3 q=59.0 size=       1KiB time=00:00:03.01 bitrate=   1.9kbits/s speed=0.0539x elapsed=0:00:55.97    \nframe=  184 fps=3.3 q=59.0 size=       1KiB time=00:00:03.05 bitrate=   1.9kbits/s speed=0.054x elapsed=0:00:56.50    \nframe=  187 fps=3.3 q=56.0 size=       1KiB time=00:00:03.10 bitrate=   1.8kbits/s speed=0.0544x elapsed=0:00:57.02    \nframe=  189 fps=3.3 q=53.0 size=       1KiB time=00:00:03.13 bitrate=   1.8kbits/s speed=0.0545x elapsed=0:00:57.54    \nframe=  193 fps=3.3 q=42.0 size=       1KiB time=00:00:03.20 bitrate=   1.8kbits/s speed=0.0551x elapsed=0:00:58.06    \nframe=  197 fps=3.4 q=56.0 size=       1KiB time=00:00:03.26 bitrate=   1.7kbits/s speed=0.0558x elapsed=0:00:58.59    \nframe=  198 fps=3.3 q=60.0 size=       1KiB time=00:00:03.28 bitrate=   1.7kbits/s speed=0.0555x elapsed=0:00:59.13    \nframe=  201 fps=3.4 q=52.0 size=       1KiB time=00:00:03.33 bitrate=   1.7kbits/s speed=0.0559x elapsed=0:00:59.65    \nframe=  205 fps=3.4 q=54.0 size=       1KiB time=00:00:03.40 bitrate=   1.7kbits/s speed=0.0565x elapsed=0:01:00.16    \nframe=  207 fps=3.4 q=56.0 size=       1KiB time=00:00:03.43 bitrate=   1.7kbits/s speed=0.0566x elapsed=0:01:00.68    \nframe=  211 fps=3.4 q=57.0 size=       1KiB time=00:00:03.50 bitrate=   1.6kbits/s speed=0.0572x elapsed=0:01:01.19    \nframe=  213 fps=3.4 q=56.0 size=       1KiB time=00:00:03.53 bitrate=   1.6kbits/s speed=0.0572x elapsed=0:01:01.75    \nframe=  217 fps=3.5 q=54.0 size=       1KiB time=00:00:03.60 bitrate=   1.6kbits/s speed=0.0578x elapsed=0:01:02.26    \nframe=  217 fps=3.5 q=54.0 size=       1KiB time=00:00:03.60 bitrate=   1.6kbits/s speed=0.0573x elapsed=0:01:02.80    \nframe=  219 fps=3.5 q=55.0 size=       1KiB time=00:00:03.63 bitrate=   1.6kbits/s speed=0.0574x elapsed=0:01:03.30    \nframe=  221 fps=3.5 q=52.0 size=       1KiB time=00:00:03.66 bitrate=   1.6kbits/s speed=0.0574x elapsed=0:01:03.83    \nframe=  225 fps=3.5 q=48.0 size=       1KiB time=00:00:03.73 bitrate=   1.5kbits/s speed=0.058x elapsed=0:01:04.37    \nframe=  227 fps=3.5 q=55.0 size=       1KiB time=00:00:03.76 bitrate=   1.5kbits/s speed=0.058x elapsed=0:01:04.91    \nframe=  229 fps=3.5 q=54.0 size=       1KiB time=00:00:03.80 bitrate=   1.5kbits/s speed=0.0581x elapsed=0:01:05.43    \nframe=  231 fps=3.5 q=51.0 size=       1KiB time=00:00:03.83 bitrate=   1.5kbits/s speed=0.0581x elapsed=0:01:05.95    \nframe=  233 fps=3.5 q=52.0 size=       1KiB time=00:00:03.86 bitrate=   1.5kbits/s speed=0.0582x elapsed=0:01:06.47    \nframe=  235 fps=3.5 q=53.0 size=       1KiB time=00:00:03.90 bitrate=   1.5kbits/s speed=0.0582x elapsed=0:01:07.00    \nframe=  237 fps=3.5 q=50.0 size=       1KiB time=00:00:03.93 bitrate=   1.4kbits/s speed=0.0582x elapsed=0:01:07.52    \nframe=  239 fps=3.5 q=53.0 size=       1KiB time=00:00:03.96 bitrate=   1.4kbits/s speed=0.0583x elapsed=0:01:08.06    \nframe=  241 fps=3.5 q=45.0 size=       1KiB time=00:00:04.00 bitrate=   1.4kbits/s speed=0.0583x elapsed=0:01:08.58    \nframe=  245 fps=3.5 q=50.0 size=       1KiB time=00:00:04.06 bitrate=   1.4kbits/s speed=0.0588x elapsed=0:01:09.11    \nframe=  247 fps=3.5 q=53.0 size=       1KiB time=00:00:04.10 bitrate=   1.4kbits/s speed=0.0589x elapsed=0:01:09.63    \nframe=  249 fps=3.5 q=49.0 size=       1KiB time=00:00:04.13 bitrate=   1.4kbits/s speed=0.0589x elapsed=0:01:10.15    \nframe=  249 fps=3.5 q=49.0 size=       1KiB time=00:00:04.13 bitrate=   1.4kbits/s speed=0.0585x elapsed=0:01:10.68    \nframe=  253 fps=3.6 q=50.0 size=       1KiB time=00:00:04.20 bitrate=   1.4kbits/s speed=0.059x elapsed=0:01:11.23    \nframe=  257 fps=3.6 q=40.0 size=       1KiB time=00:00:04.26 bitrate=   1.3kbits/s speed=0.0594x elapsed=0:01:11.77    \nframe=  261 fps=3.6 q=53.0 size=       1KiB time=00:00:04.33 bitrate=   1.3kbits/s speed=0.0599x elapsed=0:01:12.30    \nframe=  265 fps=3.6 q=49.0 size=       1KiB time=00:00:04.40 bitrate=   1.3kbits/s speed=0.0604x elapsed=0:01:12.83    \nframe=  265 fps=3.6 q=49.0 size=       1KiB time=00:00:04.40 bitrate=   1.3kbits/s speed=0.06x elapsed=0:01:13.34    \nframe=  269 fps=3.6 q=52.0 size=       1KiB time=00:00:04.46 bitrate=   1.3kbits/s speed=0.0605x elapsed=0:01:13.87    \nframe=  273 fps=3.7 q=40.0 size=       1KiB time=00:00:04.53 bitrate=   1.3kbits/s speed=0.0609x elapsed=0:01:14.43    \nframe=  279 fps=3.7 q=56.0 size=       1KiB time=00:00:04.63 bitrate=   1.2kbits/s speed=0.0618x elapsed=0:01:14.94    \nframe=  283 fps=3.7 q=56.0 size=       1KiB time=00:00:04.70 bitrate=   1.2kbits/s speed=0.0623x elapsed=0:01:15.49    \nframe=  295 fps=3.9 q=56.0 size=       1KiB time=00:00:04.90 bitrate=   1.2kbits/s speed=0.0645x elapsed=0:01:16.02    \n[out#0/matroska @ 0000017b10269780] video:684KiB audio:0KiB subtitle:0KiB other streams:0KiB global headers:0KiB muxing overhead: 0.302563%\nframe=  300 fps=3.9 q=56.0 Lsize=     686KiB time=00:00:04.98 bitrate=1127.7kbits/s speed=0.0653x elapsed=0:01:16.26    \n",
  "seconds": 78.04353475570679,
  "probe_out": {}
}